<svg version="1" xmlns="http://www.w3.org/2000/svg" width="346.667" height="346.667" viewBox="0 0 260.000000 260.000000"><path d="M107 15.6c-22.1 3.3-41 10.7-58.6 22.9C26.4 53.8 12.1 73.3 6 96.2c-2.3 8.9-2.8 28.5-.8 36.5 3.4 14.3 8.6 25.8 16.1 35.8l5 6.7-1.3 6.7c-.7 3.6-3 14.2-5.2 23.6-6.3 27.4-6 32.8 2.1 38.2 3.8 2.5 11.6 3.1 15.4 1.2 1.2-.6 10.2-9 19.9-18.7l17.6-17.5 6.9 2.1c12.8 4 18.8 5.2 33.3 6.9 12.5 1.4 16.3 1.5 27.5.4 20.7-2 42.3-8 55.5-15.4 1.9-1.1 4.4-2.5 5.5-3.1 23.7-13.3 42.9-36 49.4-58.6.7-2.5 1.7-5.8 2.2-7.4 1.3-4.1 1.1-30-.2-35-5.2-20.3-12.1-32.1-27.6-47.3-24.8-24.5-59.1-37.4-98.3-37.1-7.4 0-17.3.6-22 1.4zm51 15.2c26.4 5.7 47.1 16.8 62.7 33.5 14.6 15.7 21.4 31.9 21.5 51.2 0 12.6-1.4 19.7-6.4 30.5-8.6 18.8-24 33.8-46.8 45.7-4.6 2.4-22.7 8.2-31.5 10.1-22.7 5-49.6 3-73.9-5.3-5.5-1.9-10.7-3.5-11.5-3.5-.8 0-10.3 8.8-21.1 19.5-17.8 17.7-22 21.3-22 18.6 0-.8 2.1-10.6 10.6-49.1 2-9.4 1.8-11.2-1.9-15.6C24.4 150.7 18 134.3 18.1 116c0-26.4 13.6-49.3 39.6-66.8 13.8-9.3 30.4-15.8 49-19.2 14.2-2.6 37.2-2.2 51.3.8z"/><path d="M62.2 82.5c-3.5 1.9-8.1 6.6-9.7 9.9-1.8 3.4-2.2 25.6-.5 25.6.6 0 1 .7 1 1.5 0 1.9 6.4 8.5 8.2 8.5.8 0 2 .9 2.8 2 .8 1.1 2 2 2.8 2 3.6 0 5.9 7.9 3 10.8-2 2-7.3 1.3-13.2-1.7l-5.6-3v9.7c0 9.6.1 9.7 2.7 10.9 1.5.7 3.5 1.3 4.4 1.3 1 0 2.1.4 2.4 1 .3.5 2.8 1 5.5 1s5.2-.5 5.5-1c.3-.5 1.4-1 2.4-1 2.3 0 7.5-2.6 9.2-4.6 6.4-7.7 8-21.9 3.5-30.8-2.7-5.4-5.4-8.6-7.1-8.6-.7 0-2-.9-3-2s-2.3-2-3-2c-2.2 0-6.7-5.7-6.3-8.1.4-2.8 6.5-6.6 8.1-5 .6.6 2 1.1 3.2 1.1 1.2 0 2.5.4 3.1.9.5.5 1.9 1.2 3.2 1.6 2.2.6 2.2.5 2.2-9.4V83h-3c-1.6 0-3-.5-3-1 0-1.5-16-1.1-18.8.5zM98 120.5V160h14.1l-.1-21.8c0-11.9-.1-22.3 0-23 0-.6.5-1.2 1-1.2.6 0 1 2.7 1 6s.4 6 1 6 1 2.2 1 4.9c0 2.8.5 5.3 1 5.6.6.3 1 3 1 6s.5 5.7 1 6c.6.3 1 3.1 1 6.1v5.4h7.8c7.4 0 7.8-.1 9-2.7.6-1.5 1.2-4.8 1.2-7.4 0-2.6.5-5.1 1-5.4.6-.3 1-3 1-6s.5-5.7 1-6c.6-.3 1-3.3 1-6.6s.4-5.9 1-5.9 1-2.7 1-6 .4-6 1-6 1 9.3 1 26v26h16V80.9l-11.7.3-11.8.3-.3 3.5c-.2 1.9-.8 3.9-1.3 4.4-.5.6-.9 3.4-.9 6.2 0 2.9-.4 5.6-1 5.9-.5.3-1 3-1 6s-.4 5.7-1 6c-.5.3-1 3.1-1 6.1 0 5-1.4 8.4-3.4 8.4-.3 0-.6-2.7-.6-6s-.4-6-1-6-1-2.6-1-5.9c0-3.3-.4-6.3-1-6.6-.5-.3-1-3-1-5.9 0-2.8-.4-5.6-.9-6.2-.6-.5-1.1-2.9-1.3-5.4l-.3-4.5-11.7-.3-11.8-.3v39.6zm14-16.1c0 1.4-.4 2.8-1 3.1-.6.4-1-.7-1-2.4s.5-3.1 1-3.1c.6 0 1 1.1 1 2.4zM183 82c0 .5-.7 1-1.5 1-2 0-8.5 6.5-8.5 8.4 0 .8-.4 1.8-1 2.1-1.5.9-1.3 23 .3 25.8 2.1 3.8 7 8.7 8.7 8.7.8 0 2.2.9 3 2 .8 1.1 2 2 2.8 2 2.3 0 4.2 2.7 4.2 6 0 6.6-5.4 7.8-14.4 3.1l-5.6-3v9.7c0 9.6.1 9.7 2.7 10.9 1.5.7 3.5 1.3 4.4 1.3 1 0 2.1.4 2.4 1 .8 1.3 10.2 1.3 11 0 .3-.5 1.4-1 2.4-1 2.3 0 7.5-2.6 9.2-4.6 6.4-7.7 8-21.9 3.5-30.8-2.6-5.2-5.7-8.6-7.8-8.6-.8 0-2-.9-2.8-2-.8-1.1-2.1-2-3-2.1-2.2 0-6.2-5.5-5.8-8.1.4-2.7 6.6-6.4 8.1-4.9.6.6 2 1.1 3.2 1.1 1.2 0 2.5.4 3.1.9.5.5 1.9 1.2 3.2 1.6 2.2.6 2.2.5 2.2-9.4V83h-2.9c-1.7 0-3.3-.5-3.6-1-.3-.6-4.4-1-9.1-1-4.9 0-8.4.4-8.4 1z"/></svg>